<svg width="28" height="40" viewBox="0 0 28 40" fill="none" xmlns="http://www.w3.org/2000/svg">
<path d="M27.5024 37.6743L26.6294 30.6905C26.4976 29.6364 25.7723 28.7516 24.7645 28.4156L21.3984 27.2936C20.9362 27.1394 20.4291 27.2376 20.0726 27.5413L19.0811 27.2108C18.5179 27.023 18.138 26.496 18.138 25.9023V23.678L21.1087 22.4401C22.6507 21.7978 23.6551 20.2912 23.6551 18.6207V17.931C24.7978 17.931 25.7241 17.0047 25.7241 15.862C25.7241 15.3466 25.5352 14.8756 25.2234 14.5133C25.8088 12.3825 27.4543 5.64214 25.7241 2.75862L26.4137 0C26.4137 0 19.1724 0.172413 15.3793 1.37931L16.7586 0C16.7586 0 7.06033 0 5.03508 3.44767L5.03447 3.44827C5.03447 3.44827 1.58621 3.41956 1.58621 7.58619C1.58621 9.11119 2.43681 12.9191 2.80198 14.484C2.475 14.8499 2.27586 15.3326 2.27586 15.862C2.27586 17.0047 3.20215 17.931 4.34482 17.931V18.6207C4.34482 20.2911 5.34921 21.7977 6.89119 22.4403L9.86205 23.6781V25.9024C9.86205 26.4961 9.48214 27.0231 8.91895 27.2109L7.9274 27.5414C7.57093 27.2377 7.06387 27.1395 6.60163 27.2936L3.23551 28.4157C2.22767 28.7517 1.50233 29.6365 1.3706 30.6906L0.497674 37.6744C0.343278 38.9092 1.30612 39.9999 2.5506 39.9999H2.57H25.4299H25.4493C26.6938 39.9999 27.6567 38.9092 27.5024 37.6743Z" fill="#FFD7A3"/>
<path d="M18.1379 23.6781L9.86202 23.6781V25.9024C9.86202 26.3988 9.58736 26.8361 9.1709 27.0799C14.9549 28.0922 18.1379 23.6781 18.1379 23.6781Z" fill="#FDC88E"/>
<path d="M2.96555 15.1724C2.96555 15.1724 1.58624 9.52808 1.58624 7.58619C1.58624 3.41956 5.03451 3.44827 5.03451 3.44827L5.03511 3.44766C7.06037 0 16.7586 0 16.7586 0L15.3793 1.37931C19.1724 0.172413 26.4138 0 26.4138 0L25.7241 2.75861C27.7931 6.20688 25.0345 15.1724 25.0345 15.1724H2.96555Z" fill="#734A3E"/>
<path d="M16.7586 0C16.7586 0 7.06037 0 5.03512 3.44766L5.03451 3.44827C5.03451 3.44827 1.58624 3.41956 1.58624 7.58619C1.58624 9.52808 2.96555 15.1724 2.96555 15.1724C2.96555 15.1724 17.3047 8.76438 26.4138 0C26.4138 0 19.1724 0.172413 15.3793 1.37931L16.7586 0Z" fill="#623F33"/>
<path d="M23.6551 13.7931V12.4138C23.6551 10.5094 22.1113 8.96555 20.2069 8.96555H7.79311C5.88872 8.96555 4.34484 10.5094 4.34484 12.4138V13.7931C3.20217 13.7931 2.27588 14.7194 2.27588 15.8621C2.27588 17.0048 3.20217 17.931 4.34484 17.931V18.6207C4.34484 20.2911 5.34923 21.7978 6.89121 22.4403L11.3473 24.2971C12.1878 24.6473 13.0894 24.8276 13.9999 24.8276C14.9104 24.8276 15.8119 24.6472 16.6524 24.2971L21.1088 22.4403C22.6507 21.7978 23.6551 20.2912 23.6551 18.6207V17.931C24.7978 17.931 25.7241 17.0048 25.7241 15.8621C25.7241 14.7194 24.7978 13.7931 23.6551 13.7931Z" fill="#FFE1B2"/>
<path d="M9.17244 16.5517C8.79313 16.5517 8.48279 16.2413 8.48279 15.862V15.1724C8.48279 14.793 8.79313 14.4827 9.17244 14.4827C9.55175 14.4827 9.8621 14.793 9.8621 15.1724V15.862C9.8621 16.2413 9.55175 16.5517 9.17244 16.5517Z" fill="#623F33"/>
<path d="M18.8275 16.5517C18.4482 16.5517 18.1379 16.2413 18.1379 15.862V15.1724C18.1379 14.793 18.4482 14.4827 18.8275 14.4827C19.2068 14.4827 19.5172 14.793 19.5172 15.1724V15.862C19.5172 16.2413 19.2068 16.5517 18.8275 16.5517Z" fill="#623F33"/>
<path d="M14 21.3982C12.7739 21.3982 11.627 21.0965 10.8535 20.5702C10.5386 20.3561 10.4567 19.927 10.6713 19.6122C10.8851 19.2977 11.3145 19.2158 11.6293 19.4301C12.1715 19.7988 13.0578 20.019 14 20.019C14.9422 20.019 15.8285 19.7988 16.3707 19.4301C16.6862 19.2152 17.1146 19.2974 17.3287 19.6122C17.5432 19.927 17.4614 20.3561 17.1466 20.5702C16.3731 21.0965 15.2261 21.3982 14 21.3982Z" fill="#E4B07B"/>
<path d="M27.5024 37.6743L26.6294 30.6905C26.4977 29.6364 25.7723 28.7516 24.7645 28.4156L21.3984 27.2936C20.8122 27.0981 20.1527 27.3068 19.8216 27.8285C18.599 29.7548 16.4503 31.0343 14 31.0343C11.5496 31.0343 9.40093 29.7547 8.17843 27.8285C7.84731 27.3068 7.18783 27.0981 6.60163 27.2936L3.23551 28.4156C2.22767 28.7516 1.50233 29.6364 1.3706 30.6905L0.497672 37.6743C0.343276 38.9091 1.30621 39.9999 2.55069 39.9999H25.4494C26.6938 39.9999 27.6568 38.9091 27.5024 37.6743Z" fill="#00BEA4"/>
<path d="M1.94552 29.3248C1.63931 29.7125 1.43431 30.1808 1.3706 30.6906L0.497673 37.6744C0.343276 38.9093 1.30621 40 2.55069 40H6.41378V35.5114C6.41378 34.8479 6.17465 34.2067 5.74025 33.7051L1.94552 29.3248Z" fill="#00AB9A"/>
<path d="M26.0545 29.3248C26.3607 29.7125 26.5657 30.1808 26.6294 30.6906L27.5023 37.6744C27.6567 38.9093 26.6938 40 25.4493 40H21.5862V35.5114C21.5862 34.8479 21.8253 34.2067 22.2597 33.7051L26.0545 29.3248Z" fill="#00AB9A"/>
<path d="M7.96518 21.0106C7.40639 20.4115 7.10354 19.6209 7.10354 18.8016V10.9861C9.29862 10.8215 16.2194 10.223 20.207 8.96555H7.79311C7.5557 8.96555 7.32578 8.99322 7.10346 9.04149V9.03503C5.52958 9.3546 4.34484 10.7456 4.34484 12.4138V13.7931C3.20217 13.7931 2.27588 14.7194 2.27588 15.8621C2.27588 17.0048 3.20217 17.931 4.34484 17.931V18.6207C4.34484 20.2912 5.34923 21.7978 6.89121 22.4403L11.3472 24.2971C11.5653 24.3879 11.7879 24.4662 12.0134 24.534C10.0441 23.0934 8.73319 21.834 7.96518 21.0106Z" fill="#FFD7A3"/>
</svg>
