<svg width="28" height="40" viewBox="0 0 28 40" fill="none" xmlns="http://www.w3.org/2000/svg">
<path d="M27.0507 35.6889L26.9191 35.2383C26.8556 35.0206 26.6435 34.8872 26.4254 34.9149L26.2866 33.8738L25.9991 31.7173C25.9991 31.7172 25.9991 31.7172 25.9991 31.7171L25.9658 31.4666C25.8147 30.3336 25.1127 29.3495 23.9568 28.7716L22.6021 28.0942C22.3827 27.9846 22.2153 28.1257 22.0541 28.3049L19.0813 27.2111C18.5181 27.0234 18.1382 26.4963 18.1382 25.9026V23.6783L21.109 22.4404C22.6508 21.7978 23.6552 20.2912 23.6552 18.6207V12.4138C23.6552 10.5093 22.1113 7.58621 20.2069 7.58621H7.7931C5.88861 7.58621 4.34482 10.5093 4.34482 12.4138V18.6207C4.34482 20.2911 5.34922 21.7978 6.8912 22.4404L9.86206 23.6782V25.9024C9.86206 26.4961 9.48215 27.0232 8.91896 27.211L5.94611 28.3047C5.78499 28.1255 5.61749 27.9843 5.3981 28.0941L4.04344 28.7714C2.88741 29.3494 2.18551 30.3335 2.03447 31.4664L2.00111 31.7169C2.00111 31.717 2.00111 31.7171 2.00111 31.7172L1.71361 33.8736L1.57482 34.9147C1.35672 34.887 1.14473 35.0204 1.08111 35.2381L0.949561 35.6887C0.87913 35.93 1.01767 36.1826 1.25896 36.253L1.39129 36.2916L1.20922 37.6575C1.04353 38.8979 2.00835 40 3.25965 40H24.7403C25.9916 40 26.9565 38.8979 26.7911 37.6576L26.609 36.2917L26.7414 36.2531C26.9826 36.1828 27.1211 35.9302 27.0507 35.6889Z" fill="#F6B47B"/>
<path d="M9.86206 23.5345V25.9025C9.86206 26.3933 9.60198 26.838 9.19379 27.0836C14.6898 28.0332 17.8311 23.911 18.1166 23.5345H9.86206Z" fill="#E2A071"/>
<path d="M21.1088 22.4404L16.6524 24.2972C15.8119 24.6473 14.9104 24.8277 13.9999 24.8277C13.0894 24.8277 12.1879 24.6473 11.3473 24.2972L6.89123 22.4404C5.34924 21.7978 4.34485 20.2912 4.34485 18.6207V12.4138C4.34485 10.5094 5.88873 7.58621 7.79312 7.58621H20.2069C22.1113 7.58621 23.6552 10.5094 23.6552 12.4138V18.6207C23.6552 20.2912 22.6508 21.7979 21.1088 22.4404Z" fill="#FDC88E"/>
<path d="M9.17244 16.5517C8.79313 16.5517 8.48279 16.2414 8.48279 15.8621V15.1724C8.48279 14.7931 8.79313 14.4828 9.17244 14.4828C9.55175 14.4828 9.8621 14.7931 9.8621 15.1724V15.8621C9.8621 16.2414 9.55175 16.5517 9.17244 16.5517Z" fill="#623F33"/>
<path d="M18.8276 16.5517C18.4483 16.5517 18.1379 16.2414 18.1379 15.8621V15.1724C18.1379 14.7931 18.4483 14.4828 18.8276 14.4828C19.2069 14.4828 19.5173 14.7931 19.5173 15.1724V15.8621C19.5173 16.2414 19.2069 16.5517 18.8276 16.5517Z" fill="#623F33"/>
<path d="M14 21.3981C12.7739 21.3981 11.627 21.0964 10.8535 20.5701C10.5386 20.356 10.4567 19.9269 10.6713 19.6121C10.8851 19.2976 11.3145 19.2157 11.6293 19.4299C12.1715 19.7986 13.0578 20.0189 14 20.0189C14.9423 20.0189 15.8285 19.7986 16.3707 19.4299C16.6862 19.2151 17.1146 19.2973 17.3287 19.6121C17.5432 19.9269 17.4614 20.356 17.1466 20.5701C16.3731 21.0964 15.2261 21.3981 14 21.3981Z" fill="#E2A071"/>
<path d="M4.34485 13.2018V18.6208C4.34485 20.2912 5.34924 21.798 6.89123 22.4405L11.3473 24.2972C11.5654 24.3881 11.7879 24.4663 12.0134 24.5342C10.0441 23.0936 8.73321 21.8342 7.9651 21.0107C7.40631 20.4116 7.10347 19.621 7.10347 18.8017V14.9473C9.0776 14.2582 14.1849 11.995 14.2558 8.27607C14.2625 7.92461 14.2572 7.61124 14.2416 7.33185C10.9959 11.7685 6.49924 12.9319 4.34485 13.2018Z" fill="#F6B47B"/>
<path d="M25.9397 22.939C25.9397 21.4777 24.7349 20.8602 24.7349 19.6158C24.7349 18.3714 26.3003 18.0366 26.3003 16.1711C26.3003 14.9241 25.7446 13.9559 25.376 13.0636C27.4776 3.95457 19.5938 0 17.4483 0C15.2069 0 14 0.689655 14 0.689655C14 0.689655 12.7931 0 10.5518 0C8.40623 0 0.522441 3.95457 2.62408 13.0635C2.25546 13.9558 1.69977 14.924 1.69977 16.171C1.69977 18.0366 3.26511 18.3713 3.26511 19.6157C3.26511 20.8601 2.06037 21.4777 2.06037 22.9389C2.06037 24.4002 3.22072 25.1078 3.5977 26.2072C3.77011 26.71 3.56899 28.2184 3.56899 28.2184C3.56899 28.2184 4.79744 26.1915 4.15089 24.3295C3.50434 22.4675 4.25434 22.2672 4.84054 21.4541C5.72416 20.2284 5.60434 18.8534 4.8827 17.517C4.41666 16.6539 4.53934 15.8202 5.19253 15.2397C5.88003 14.6289 6.04123 13.5747 6.04218 13.5679C9.30718 12.6121 14 10.6972 14 7.58621C14 10.6972 18.6929 12.6121 21.9578 13.5679C21.9588 13.5746 22.12 14.6289 22.8074 15.2397C23.4606 15.8202 23.5833 16.6539 23.1173 17.517C22.3956 18.8534 22.2758 20.2285 23.1594 21.4541C23.7456 22.2672 24.4956 22.4675 23.8491 24.3295C23.2025 26.1914 24.431 28.2184 24.431 28.2184C24.431 28.2184 24.2299 26.7099 24.4023 26.2072C24.7793 25.1078 25.9397 24.4002 25.9397 22.939Z" fill="#6E4439"/>
<path d="M25.9657 31.4667C25.8146 30.3337 25.1127 29.3496 23.9567 28.7717L22.6021 28.0943C22.3516 27.9692 22.1689 28.1707 21.986 28.3827C18.3105 32.644 14.0002 34.4833 14.0002 34.4833H14.0002H14.0001C14.0001 34.4833 9.68982 32.644 6.0143 28.3827C5.83146 28.1707 5.64861 27.9692 5.39827 28.0943L4.04361 28.7717C2.88758 29.3497 2.18568 30.3338 2.03465 31.4667L1.47327 35.6767C3.29499 36.304 6.41378 37.2416 6.41378 37.2416V40.0002H21.5862V37.2416C21.5862 37.2416 24.705 36.304 26.527 35.6767L25.9657 31.4667Z" fill="#57B9DD"/>
<path d="M6.39671 37.0307C6.35456 36.2106 6.08077 35.4182 5.5862 34.7587L2.34853 30.4418C2.19224 30.7637 2.08241 31.1063 2.03431 31.4665L1.48767 35.5666L6.39671 37.0307Z" fill="#43A0C5"/>
<path d="M0.949318 35.689C0.878887 35.9303 1.01742 36.183 1.25863 36.2533L6.4138 37.7571V37.2415C6.4138 36.9157 6.36259 36.5966 6.28785 36.2835L1.64509 34.9292C1.40389 34.8588 1.1513 34.9973 1.08096 35.2385L0.949318 35.689Z" fill="#258CAC"/>
<path d="M21.6033 37.0307C21.6454 36.2106 21.9192 35.4182 22.4138 34.7587L25.6515 30.4418C25.8078 30.7637 25.9176 31.1063 25.9657 31.4665L26.5123 35.5666L21.6033 37.0307Z" fill="#43A0C5"/>
<path d="M27.0507 35.689C27.1212 35.9303 26.9826 36.183 26.7414 36.2533L21.5862 37.7571V37.2415C21.5862 36.9157 21.6374 36.5966 21.7122 36.2835L26.355 34.9292C26.5962 34.8588 26.8488 34.9973 26.9191 35.2385L27.0507 35.689Z" fill="#258CAC"/>
<path d="M10.5517 0C8.40623 0 0.522528 3.95457 2.62408 13.0635C2.25546 13.9558 1.69977 14.924 1.69977 16.171C1.69977 18.0366 3.26511 18.3713 3.26511 19.6157C3.26511 20.8601 2.06037 21.4777 2.06037 22.9389C2.06037 24.4002 3.22071 25.1078 3.5977 26.2072C3.77011 26.71 3.56899 28.2184 3.56899 28.2184C3.56899 28.2184 4.79744 26.1915 4.15089 24.3295C3.50433 22.4675 4.25433 22.2672 4.84054 21.4541C5.72416 20.2284 5.60433 18.8534 4.88269 17.517C4.41666 16.6539 4.53933 15.8202 5.19252 15.2397C5.88002 14.6289 6.04123 13.5747 6.04218 13.5679L6.04149 13.5678C6.04175 13.5678 6.04192 13.5677 6.04218 13.5677C4.0939 4.60069 11.8614 0.69681 14 0.69V0.689655C14 0.689655 12.7931 0 10.5517 0Z" fill="#5E342E"/>
</svg>
