<svg width="314" height="40" viewBox="0 0 314 40" fill="none" xmlns="http://www.w3.org/2000/svg">
<rect x="4.83328" y="10.3334" width="8.45833" height="8.45833" rx="1.5" fill="white"/>
<path opacity="0.3" fill-rule="evenodd" clip-rule="evenodd" d="M15.7083 11.8334C15.7083 11.0049 16.3799 10.3334 17.2083 10.3334H22.6666C23.495 10.3334 24.1666 11.0049 24.1666 11.8334V17.2917C24.1666 18.1201 23.495 18.7917 22.6666 18.7917H17.2083C16.3799 18.7917 15.7083 18.1201 15.7083 17.2917V11.8334ZM4.83328 22.7084C4.83328 21.8799 5.50486 21.2084 6.33328 21.2084H11.7916C12.62 21.2084 13.2916 21.8799 13.2916 22.7084V28.1667C13.2916 28.9951 12.62 29.6667 11.7916 29.6667H6.33328C5.50486 29.6667 4.83328 28.9951 4.83328 28.1667V22.7084ZM17.2083 21.2084C16.3799 21.2084 15.7083 21.8799 15.7083 22.7084V28.1667C15.7083 28.9951 16.3799 29.6667 17.2083 29.6667H22.6666C23.495 29.6667 24.1666 28.9951 24.1666 28.1667V22.7084C24.1666 21.8799 23.495 21.2084 22.6666 21.2084H17.2083Z" fill="white"/>
<rect opacity="0.3" x="68.7083" y="10.961" width="3.625" height="18.0779" rx="1.8125" fill="white"/>
<rect x="62.6667" y="16.6104" width="3.625" height="12.4286" rx="1.8125" fill="white"/>
<rect x="74.75" y="18.8701" width="3.625" height="10.1688" rx="1.8125" fill="white"/>
<rect x="56.625" y="21.1299" width="3.625" height="7.90909" rx="1.8125" fill="white"/>
<path fill-rule="evenodd" clip-rule="evenodd" d="M129.145 25.8074C129.468 26.0977 129.982 25.8676 129.98 25.4338L129.962 21.0362V13.9309C129.962 12.6229 128.784 11.5625 127.331 11.5625H115.05C113.597 11.5625 112.419 12.6229 112.419 13.9309V17.1875H119.667C121.324 17.1875 122.667 18.5306 122.667 20.1875V23.4046H126.476L129.145 25.8074Z" fill="white"/>
<path opacity="0.3" fill-rule="evenodd" clip-rule="evenodd" d="M108.068 25.625V20.9375C108.068 19.902 109.001 19.0625 110.151 19.0625H118.484C119.635 19.0625 120.568 19.902 120.568 20.9375V25.625C120.568 26.6605 119.635 27.5 118.484 27.5H110.272L108.921 28.6632C108.597 28.9424 108.095 28.7121 108.095 28.2844V25.929C108.077 25.83 108.068 25.7285 108.068 25.625ZM112.25 22.3437C112.25 22.0849 112.46 21.875 112.719 21.875H118.031C118.29 21.875 118.5 22.0849 118.5 22.3437C118.5 22.6026 118.29 22.8125 118.031 22.8125H112.719C112.46 22.8125 112.25 22.6026 112.25 22.3437ZM115.844 23.75C115.585 23.75 115.375 23.9599 115.375 24.2188C115.375 24.4776 115.585 24.6875 115.844 24.6875H118.031C118.29 24.6875 118.5 24.4776 118.5 24.2188C118.5 23.9599 118.29 23.75 118.031 23.75H115.844Z" fill="white"/>
<path d="M155.887 15H157.567V9.552L159.823 15H161.095L163.339 9.552V15H165.019V6.624H163.123L160.459 12.852L157.795 6.624H155.887V15ZM166.248 11.652C166.248 13.728 167.592 15.108 169.272 15.108C170.328 15.108 171.084 14.604 171.48 14.028V15H173.172V8.352H171.48V9.3C171.084 8.748 170.352 8.244 169.284 8.244C167.592 8.244 166.248 9.576 166.248 11.652ZM171.48 11.676C171.48 12.936 170.64 13.632 169.716 13.632C168.816 13.632 167.964 12.912 167.964 11.652C167.964 10.392 168.816 9.72 169.716 9.72C170.64 9.72 171.48 10.416 171.48 11.676ZM176.492 11.688C176.492 10.404 177.092 10.02 178.088 10.02H178.532V8.256C177.608 8.256 176.912 8.7 176.492 9.384V8.352H174.812V15H176.492V11.688ZM178.956 8.352L181.404 15H183.444L185.904 8.352H184.116L182.436 13.452L180.756 8.352H178.956ZM186.848 15H188.528V8.352H186.848V15ZM187.7 7.56C188.288 7.56 188.732 7.128 188.732 6.576C188.732 6.024 188.288 5.592 187.7 5.592C187.1 5.592 186.668 6.024 186.668 6.576C186.668 7.128 187.1 7.56 187.7 7.56ZM194.843 15H196.523V11.1C196.523 9.264 195.419 8.256 193.871 8.256C193.019 8.256 192.299 8.616 191.867 9.18V8.352H190.187V15H191.867V11.328C191.867 10.26 192.455 9.684 193.367 9.684C194.255 9.684 194.843 10.26 194.843 11.328V15ZM200.98 15H202.66V9.552L204.916 15H206.188L208.432 9.552V15H210.112V6.624H208.216L205.552 12.852L202.888 6.624H200.98V15ZM211.341 11.676C211.341 13.764 212.709 15.108 214.629 15.108C216.285 15.108 217.401 14.172 217.761 12.756H215.949C215.745 13.356 215.313 13.668 214.617 13.668C213.681 13.668 213.057 12.972 213.057 11.676C213.057 10.38 213.681 9.672 214.617 9.672C215.313 9.672 215.757 10.032 215.949 10.596H217.761C217.401 9.108 216.285 8.244 214.629 8.244C212.709 8.244 211.341 9.588 211.341 11.676ZM223.72 15H225.844L222.292 10.776L225.748 6.624H223.72L220.672 10.38V6.624H218.992V15H220.672V11.268L223.72 15ZM226.949 15H228.629V8.352H226.949V15ZM227.801 7.56C228.389 7.56 228.833 7.128 228.833 6.576C228.833 6.024 228.389 5.592 227.801 5.592C227.201 5.592 226.769 6.024 226.769 6.576C226.769 7.128 227.201 7.56 227.801 7.56ZM234.945 15H236.625V11.1C236.625 9.264 235.521 8.256 233.973 8.256C233.121 8.256 232.401 8.616 231.969 9.18V8.352H230.289V15H231.969V11.328C231.969 10.26 232.557 9.684 233.469 9.684C234.357 9.684 234.945 10.26 234.945 11.328V15ZM242.879 15H244.559V11.1C244.559 9.264 243.455 8.256 241.907 8.256C241.055 8.256 240.335 8.616 239.903 9.18V8.352H238.223V15H239.903V11.328C239.903 10.26 240.491 9.684 241.403 9.684C242.291 9.684 242.879 10.26 242.879 11.328V15ZM249.012 9.624C249.876 9.624 250.572 10.176 250.596 11.052H247.44C247.572 10.14 248.208 9.624 249.012 9.624ZM252.168 12.912H250.356C250.14 13.356 249.744 13.716 249.024 13.716C248.184 13.716 247.512 13.164 247.428 12.18H252.288C252.324 11.964 252.336 11.748 252.336 11.532C252.336 9.552 250.98 8.244 249.06 8.244C247.092 8.244 245.724 9.576 245.724 11.676C245.724 13.764 247.128 15.108 249.06 15.108C250.704 15.108 251.808 14.136 252.168 12.912ZM256.394 12.996L254.678 8.352H252.794L255.458 14.832L254.018 18.144H255.806L259.922 8.352H258.134L256.394 12.996Z" fill="#F4FFF3"/>
<path d="M227.289 31.008H223.473L222.741 33H221.853L224.913 24.72H225.861L228.909 33H228.021L227.289 31.008ZM227.037 30.312L225.381 25.776L223.725 30.312H227.037ZM229.873 29.712C229.873 29.04 230.009 28.452 230.281 27.948C230.553 27.436 230.925 27.044 231.397 26.772C231.877 26.492 232.417 26.352 233.017 26.352C233.593 26.352 234.113 26.492 234.577 26.772C235.041 27.052 235.381 27.416 235.597 27.864V24.12H236.437V33H235.597V31.536C235.397 31.992 235.069 32.368 234.613 32.664C234.157 32.952 233.621 33.096 233.005 33.096C232.405 33.096 231.865 32.956 231.385 32.676C230.913 32.396 230.541 32 230.269 31.488C230.005 30.976 229.873 30.384 229.873 29.712ZM235.597 29.724C235.597 29.196 235.489 28.732 235.273 28.332C235.057 27.932 234.761 27.624 234.385 27.408C234.017 27.192 233.609 27.084 233.161 27.084C232.697 27.084 232.281 27.188 231.913 27.396C231.545 27.604 231.253 27.908 231.037 28.308C230.829 28.7 230.725 29.168 230.725 29.712C230.725 30.248 230.829 30.72 231.037 31.128C231.253 31.528 231.545 31.836 231.913 32.052C232.281 32.26 232.697 32.364 233.161 32.364C233.609 32.364 234.017 32.256 234.385 32.04C234.761 31.824 235.057 31.516 235.273 31.116C235.489 30.716 235.597 30.252 235.597 29.724ZM246.155 26.328C246.923 26.328 247.547 26.572 248.027 27.06C248.515 27.54 248.759 28.24 248.759 29.16V33H247.931V29.256C247.931 28.544 247.759 28 247.415 27.624C247.071 27.248 246.603 27.06 246.011 27.06C245.395 27.06 244.903 27.264 244.535 27.672C244.167 28.08 243.983 28.672 243.983 29.448V33H243.155V29.256C243.155 28.544 242.983 28 242.639 27.624C242.295 27.248 241.823 27.06 241.223 27.06C240.607 27.06 240.115 27.264 239.747 27.672C239.379 28.08 239.195 28.672 239.195 29.448V33H238.355V26.448H239.195V27.576C239.403 27.168 239.699 26.86 240.083 26.652C240.467 26.436 240.895 26.328 241.367 26.328C241.935 26.328 242.431 26.464 242.855 26.736C243.287 27.008 243.599 27.408 243.791 27.936C243.967 27.416 244.267 27.02 244.691 26.748C245.123 26.468 245.611 26.328 246.155 26.328ZM251.044 25.212C250.876 25.212 250.732 25.152 250.612 25.032C250.492 24.912 250.432 24.764 250.432 24.588C250.432 24.412 250.492 24.268 250.612 24.156C250.732 24.036 250.876 23.976 251.044 23.976C251.212 23.976 251.356 24.036 251.476 24.156C251.596 24.268 251.656 24.412 251.656 24.588C251.656 24.764 251.596 24.912 251.476 25.032C251.356 25.152 251.212 25.212 251.044 25.212ZM251.464 26.448V33H250.624V26.448H251.464ZM256.438 26.328C257.222 26.328 257.862 26.572 258.358 27.06C258.854 27.54 259.102 28.24 259.102 29.16V33H258.274V29.256C258.274 28.544 258.094 28 257.734 27.624C257.382 27.248 256.898 27.06 256.282 27.06C255.65 27.06 255.146 27.26 254.77 27.66C254.394 28.06 254.206 28.648 254.206 29.424V33H253.366V26.448H254.206V27.564C254.414 27.164 254.714 26.86 255.106 26.652C255.498 26.436 255.942 26.328 256.438 26.328Z" fill="white"/>
<rect x="274" width="40" height="40" rx="6" fill="white" fill-opacity="0.08"/>
<path d="M286.5 27H288.78V17.48L293.04 27H294.62L298.86 17.48V27H301.14V13.1H298.7L293.84 24L288.96 13.1H286.5V27Z" fill="white"/>
</svg>
